<?xml version="1.0" encoding="utf-8"?>
<!-- Generator: Adobe Illustrator 23.0.6, SVG Export Plug-In . SVG Version: 6.00 Build 0)  -->
<svg version="1.1" id="Layer_1" xmlns="http://www.w3.org/2000/svg" xmlns:xlink="http://www.w3.org/1999/xlink" x="0px" y="0px"
	 viewBox="0 0 1200 1200" enable-background="new 0 0 1200 1200" xml:space="preserve">
<g>
	<g>
		<path fill="#F9CA6B" d="M155.909,736.23c0.017,1.239,0.035,2.485,0.057,3.731c-27.486,1.589-54.972,3.177-82.457,4.765
			c-1.186,0.069-2.47,0.111-3.448-0.562c-1.179-0.812-1.516-2.376-1.76-3.787C62.2,705.021,56.1,669.666,50,634.311
			c33.502-1.943,67.073-2.617,100.629-2.159c0.114,1.447,0.237,2.889,0.36,4.323C153.82,669.654,155.462,702.934,155.909,736.23z"/>
		<path fill="#F4B84D" d="M71.294,653.76c25.164,18.773,50.452,37.791,78.564,52.002c1.783,0.901,3.576,1.775,5.376,2.626
			c0.31,9.278,0.551,18.559,0.676,27.842c0.017,1.239,0.035,2.485,0.057,3.731c-27.486,1.589-54.972,3.177-82.457,4.765
			c-1.186,0.069-2.47,0.111-3.448-0.562c-1.179-0.812-1.516-2.376-1.76-3.787c-5.854-33.928-11.708-67.857-17.562-101.785
			C57.628,643.595,64.469,648.668,71.294,653.76z"/>
		<g>
			<path fill="#9DA7A8" d="M1046.166,857.272c-156.111-14.521-312.221-29.041-468.331-43.562
				c-21.968-2.044-44.368-4.195-64.594-13.007c-17.349-7.559-32.39-20.104-43.334-35.53c-14.687-20.704-39.951-31.088-65.188-28.357
				c-88.068,9.532-107.614,8.513-194.263,10.63l-14.09-119.205c0.079-0.902,0.156-1.808,0.231-2.714
				c86.655-15.438,105.285-20.345,194.016-28.634c25.274-2.361,47.957-17.58,58.216-40.798c7.644-17.3,19.879-32.595,35.37-43.465
				c18.06-12.672,39.58-19.251,60.698-25.638c150.07-45.388,300.141-90.776,450.212-136.164c31.115-9.411,69.05-17.396,92.696,4.91
				c9.365,8.834,14.613,21.065,19.611,32.929c16.566,39.321,49.629,367.275,41.244,409.111c-2.53,12.623-5.23,25.655-12.644,36.181
				C1117.299,860.535,1078.533,860.283,1046.166,857.272z"/>
			<path fill="#61544C" d="M210.457,747.446l0.009,0.073c-0.356,7.902-0.74,15.951-3.465,23.377
				c-2.725,7.426-8.213,14.268-15.772,16.599c-11.601,3.577-24.162-4.779-29.6-15.633c-4.883-9.746-5.474-20.93-5.663-31.901
				c-0.021-1.247-0.04-2.493-0.057-3.731c-0.448-33.296-2.089-66.576-4.921-99.754c-0.122-1.434-0.246-2.877-0.36-4.323
				c-0.793-10.07-1.124-20.352,2.619-29.647c4.28-10.631,15.777-19.332,26.837-16.33c7.917,2.149,13.453,9.674,15.572,17.599
				c1.885,7.05,1.54,14.452,0.94,21.754c-0.074,0.906-0.152,1.812-0.231,2.714L210.457,747.446z"/>
			<path fill="#51453F" d="M161.629,771.862c-4.883-9.746-5.474-20.93-5.663-31.901c-0.021-1.247-0.04-2.493-0.057-3.731
				c-0.448-33.296-2.089-66.576-4.921-99.754c-0.122-1.434-0.246-2.877-0.36-4.323c-0.444-5.637-0.714-11.335-0.235-16.895
				c0.734,4.077,1.659,8.128,2.833,12.136c8.454,28.865,27.916,50.358,51.073,67.964l6.157,52.089l0.009,0.073
				c-0.356,7.902-0.74,15.951-3.465,23.377c-2.725,7.426-8.213,14.268-15.772,16.599
				C179.629,791.071,167.067,782.715,161.629,771.862z"/>
		</g>
	</g>
	<g>
		<path fill="none" d="M792.673,590.357c3.468-0.752,5.256-0.752,9.059,0.196c-1.451-0.362,1.265,0.483,1.361,0.518
			c0.007,0.003,0.014,0.006,0.022,0.009c-4.272,0.059-8.544,0.137-12.816,0.218C791.087,590.881,791.897,590.526,792.673,590.357z"
			/>
		<path fill="none" d="M786.444,754.716c-0.809-0.118-1.792-0.67-2.184-0.918c-1.305-0.824-1.025-0.547-2.117-2.081
			c-0.718-1.009-0.576-0.617-0.747-1.738c-0.201-1.317-0.167-0.318,0.37-1.556c0.173-0.398,0.258-0.776,0.373-1.162
			c6.643-0.409,13.285-0.785,19.926-1.117c-0.403,0.485-0.794,0.979-1.219,1.451C797.277,751.56,791.647,755.473,786.444,754.716z"
			/>
		<path fill="#51453F" d="M869.187,826.366c4.338,2.374,10.168-1.03,11.781-5.153c1.954-4.992-0.846-9.425-5.154-11.781
			c-12.019-6.577-20.842-17.986-28.418-29.083c-3.457-5.064-6.776-10.228-10.056-15.418c27.457,13.315,57.735,20.563,88.378,20.523
			c4.93-0.006,9.431-2.782,9.99-8.101c0.476-4.516-3.189-9.997-8.101-9.99c-30.348,0.039-60.368-7.128-87.175-21.117
			c0.588-0.494,1.137-1.054,1.701-1.589c0.404-0.383,0.829-0.729,1.217-1.137c7.861-8.263,11.881-19.661,15.918-30.131
			c13.293-34.469,21.711-75.203,3.168-109.461c-2.475-4.572-5.36-8.917-8.558-13c-7.583-9.686-17.129-17.733-28.605-22.635
			c-16.401-7.005-37.511-7.309-50.038,7.027c-1.557,1.782-2.028,4.144-1.712,6.427c-0.389,0.434-0.801,0.834-1.17,1.298
			c-2.357,2.961-2.42,6.082-1.204,8.661c6.383-0.166,12.766-0.289,19.149-0.41c0.788-0.418,1.598-0.773,2.374-0.941
			c3.468-0.752,5.256-0.752,9.059,0.196c-1.451-0.362,1.265,0.483,1.361,0.518c0.007,0.003,0.014,0.006,0.022,0.009
			c0.6,0.223,1.189,0.469,1.776,0.726c0.67,0.343,0.925,0.46,0.837,0.391c0.279,0.17,0.561,0.338,0.831,0.522
			c0.716,0.496,1.419,0.992,2.098,1.54c2.607,2.102,4.847,4.899,6.6,7.863c7.883,13.33,9.661,31.121,9.793,46.285
			c0.149,17.062-2.117,34.05-5.481,50.749c-3.24,16.079-6.739,34.03-17.504,46.99c-0.403,0.485-0.794,0.979-1.219,1.451
			c-3.569,3.965-9.199,7.877-14.402,7.121c-0.809-0.118-1.792-0.67-2.184-0.918c-1.305-0.824-1.025-0.547-2.117-2.081
			c-0.718-1.009-0.576-0.617-0.747-1.738c-0.201-1.317-0.167-0.318,0.37-1.556c0.173-0.398,0.258-0.776,0.373-1.162
			c-6.293,0.388-12.587,0.806-18.881,1.258c-0.476,9.295,5.776,18.258,14.326,22.292c10.495,4.952,22.892,0.866,31.439-6.06
			c1.558-1.263,2.991-2.624,4.37-4.028c6.876,11.147,13.721,22.347,21.223,33.057C843.911,807.05,854.887,818.541,869.187,826.366z
			 M830.267,730.939c2.983-9.026,5.013-18.434,6.866-27.322c4.355-20.895,6.889-42.124,5.694-63.486
			c-0.883-15.774-3.65-33.372-12.068-47.276c19.651,16.318,26.395,43.215,23.596,68.607c-1.747,15.85-6.507,31.094-12.257,45.908
			c-2.772,7.142-5.335,14.947-9.864,21.198C831.609,729.432,830.948,730.208,830.267,730.939z"/>
		<path fill="#F9CA6B" d="M564.983,769.979c65.695-8.55,131.983-16.702,198.274-21.46c6.294-0.452,12.588-0.87,18.881-1.258
			c6.643-0.409,13.285-0.785,19.926-1.117c10.765-12.959,14.264-30.91,17.504-46.99c3.364-16.699,5.63-33.687,5.481-50.749
			c-0.132-15.164-1.909-32.954-9.793-46.285c-1.753-2.964-3.993-5.761-6.6-7.863c-0.679-0.547-1.382-1.044-2.098-1.54
			c-0.27-0.184-0.552-0.352-0.831-0.522c0.087,0.069-0.167-0.048-0.837-0.391c-0.587-0.257-1.176-0.503-1.776-0.726
			c-4.272,0.059-8.544,0.137-12.816,0.218c-6.384,0.121-12.767,0.243-19.149,0.41c-44.018,1.148-88.017,3.311-131.953,6.019
			c-22.939,1.414-45.869,2.975-68.795,4.601c-14.752,1.046-52.338-2.895-63.193,6.536c-10.842,9.42-11.906,45.838-12.662,59.086
			c-1.154,20.224,0.737,40.637,5.724,60.276c3.872,15.248,10.621,31.296,24.504,38.696
			C536.842,773.353,551.425,771.744,564.983,769.979z M830.759,592.855c8.418,13.904,11.184,31.502,12.068,47.276
			c1.195,21.363-1.339,42.592-5.694,63.486c-1.853,8.887-3.883,18.295-6.866,27.322c0.681-0.731,1.342-1.507,1.968-2.371
			c4.529-6.251,7.091-14.056,9.864-21.198c5.75-14.814,10.51-30.058,12.257-45.908C857.154,636.07,850.41,609.174,830.759,592.855z
			 M843.351,743.52c-0.388,0.408-0.813,0.754-1.217,1.137c79.151-1.884,157.972,2.807,235.449,19.277
			c3.157-28.291,10.323-56.131,21.218-82.431c4.42-10.667,9.5-21.258,11.168-32.683c1.669-11.426-0.688-24.169-9.183-31.99
			c-7.471-6.878-18.134-8.767-28.181-10.243c-51.779-7.607-103.988-12.051-156.269-14.19c-20.814-0.852-41.635-1.292-62.457-1.468
			c3.198,4.084,6.083,8.428,8.558,13c18.542,34.257,10.124,74.992-3.168,109.461C855.232,723.859,851.212,735.257,843.351,743.52z"
			/>
		<path fill="#F4B84D" d="M854.355,661.462c-1.747,15.85-6.507,31.094-12.257,45.908c-2.772,7.142-5.335,14.947-9.864,21.198
			c-0.626,0.864-1.286,1.639-1.968,2.371c2.983-9.026,5.013-18.434,6.866-27.322c4.355-20.895,6.889-42.124,5.694-63.486
			c-0.047-0.834-0.123-1.69-0.18-2.533c3.81-0.026,7.62-0.043,11.429-0.041C855.171,645.427,855.231,653.518,854.355,661.462z"/>
		<path fill="#F4B84D" d="M859.269,713.39c9.122-23.654,15.944-50.258,13.337-75.694c8.043,0.11,16.085,0.266,24.125,0.523
			c26.355,0.842,52.688,2.516,78.92,5.212c23.432,2.409,46.875,4.843,70.296,7.373c20.163,2.178,41.011,4.665,61.45,8.854
			c-2.334,7.433-5.604,14.625-8.596,21.846c-10.894,26.299-18.061,54.14-21.218,82.431c-77.478-16.47-156.298-21.16-235.449-19.277
			c0.404-0.383,0.829-0.729,1.217-1.137C851.212,735.257,855.232,723.859,859.269,713.39z"/>
		<path fill="#F4B84D" d="M524.777,766.922c-13.883-7.4-20.632-23.448-24.504-38.696c-4.987-19.639-6.878-40.051-5.724-60.276
			c0.756-13.248,1.82-49.667,12.662-59.086c1.296-1.125,2.981-2.056,4.954-2.832c2.014,1.836,4.073,3.621,6.252,5.273
			c30.397,23.051,71.679,29.193,108.703,31.702c37.603,2.549,75.267,0.473,112.826-1.774c28.198-1.687,56.443-2.893,84.697-3.406
			c0.248,3.603,0.38,7.162,0.41,10.579c0.149,17.062-2.117,34.05-5.481,50.749c-3.24,16.079-6.739,34.03-17.504,46.99
			c-6.641,0.332-13.283,0.708-19.926,1.117c-6.293,0.388-12.587,0.806-18.881,1.258c-66.291,4.758-132.58,12.91-198.274,21.46
			C551.425,771.744,536.842,773.353,524.777,766.922z"/>
	</g>
	<g>
		<path fill="#C2CDCE" d="M463.925,611.87c-5.196-10.781-2.876-23.724,5.005-32.731c63.203-72.237,163.347-103.089,258.684-92.582
			c7.086,1.094,17.928,10.749,14.979,20.45c-4.804,12.317-17.454,19.069-27.869,25.441c-36.096,17.641-75.995,12.93-115.087,26.481
			c-32.767,10.175-50.935,38.565-80.326,55.065c-12.27,8.987-29.771,14.265-44.323,9.841
			C470.123,621.137,466.352,616.905,463.925,611.87z"/>
	</g>
	<g opacity="0.2">
		<path fill="#7E9091" d="M1046.166,857.272c-156.111-14.521-312.221-29.041-468.331-43.562
			c-21.968-2.044-44.368-4.195-64.594-13.007c-17.349-7.559-32.39-20.104-43.334-35.53c-14.687-20.704-39.951-31.088-65.188-28.357
			c-88.068,9.532-107.614,8.513-194.263,10.63l-14.09-119.205c0.001-0.017,0.003-0.034,0.004-0.051
			c99.129,33.618,210.37,48.371,315.866,34.767c12.063-1.216,24.733,3.599,28.357,9.326c19.334,40.699,68.192,41.866,102.276,47.568
			c173.431,20.012,338.204,0.857,502.534-37.574c4.246,56.041,6.043,101.591,3.255,115.5c-2.53,12.623-5.23,25.655-12.644,36.181
			C1117.299,860.535,1078.533,860.283,1046.166,857.272z"/>
	</g>
</g>
</svg>
